<svg width="205" height="108" viewBox="0 0 205 108" fill="none" xmlns="http://www.w3.org/2000/svg">
<path d="M56.2552 40.4832L71.3287 66.5913L56.2552 92.6994L26.1081 92.6994L11.0346 66.5913L26.1081 40.4832L56.2552 40.4832Z" fill="#F1C40F"/>
<path d="M117.841 40.4832L132.915 66.5913L117.841 92.6994L87.6943 92.6994L72.6208 66.5913L87.6943 40.4832L117.841 40.4832Z" fill="#D6AE0E"/>
<path d="M103.199 15.0735L118.272 41.1817L103.199 67.2898L73.0515 67.2898L57.978 41.1816L73.0515 15.0735L103.199 15.0735Z" fill="#D6AE0E"/>
<path d="M178.135 40.4832L193.209 66.5913L178.135 92.6994L147.988 92.6994L132.915 66.5913L147.988 40.4832L178.135 40.4832Z" fill="#F1C40F"/>
<path d="M163.493 15.0735L178.566 41.1817L163.493 67.2898L133.346 67.2898L118.272 41.1816L133.346 15.0735L163.493 15.0735Z" fill="#F1C40F"/>
</svg>
